<svg width="150" height="151" viewBox="0 0 150 151" fill="none" xmlns="http://www.w3.org/2000/svg">
<g filter="url(#filter0_d_121_44)">
<g filter="url(#filter1_d_121_44)">
<path d="M40.9919 98.4369L40.9928 98.4363C41.973 97.809 42.8005 97.0295 43.4855 96.1497C58.7983 102.848 75.1426 103.487 89.2551 98.9982C89.7437 99.9481 90.4318 100.767 91.3253 101.381C91.935 101.8 92.6002 102.096 93.2987 102.281C91.9538 111.715 88.5216 120.992 82.7594 129.376C81.867 130.674 80.9184 131.913 79.9419 133.127C74.8564 134.486 69.5927 135.14 64.3104 135.057C51.6446 126.019 43.2903 113.152 39.7053 99.1176C40.1418 98.9255 40.5737 98.7033 40.9919 98.4369Z" fill="#0A0909" stroke="black"/>
<mask id="mask0_121_44" style="mask-type:luminance" maskUnits="userSpaceOnUse" x="0" y="3" width="140" height="140">
<path d="M0.5 3.5H139.5V142.5H0.5V3.5Z" fill="white" stroke="white"/>
</mask>
<g mask="url(#mask0_121_44)">
<path d="M59.3142 34.3874C56.1163 34.3874 52.9701 34.5369 49.8566 34.7534C48.6534 33.4449 46.862 32.4445 44.7379 31.803C47.9528 25.9376 52.0584 20.4178 56.9939 15.3728C66.5265 12.8742 76.7637 11.5 87.4317 11.5C96.1579 11.5 104.598 12.4185 112.596 14.1203C101.767 20.1763 91.7856 27.6857 83.1782 36.4617C75.5125 35.113 67.5291 34.3874 59.3142 34.3874Z" fill="#2C2C2C" stroke="black"/>
<path d="M60.4118 72.0784L60.4123 72.079C61.8781 74.068 63.9335 75.3115 65.9166 75.5536C65.9325 75.5866 65.9484 75.6196 65.9643 75.6526C66.208 76.1591 66.4458 76.6532 66.6628 77.1644C68.0763 80.4944 69.1033 83.8896 69.7648 87.3011C66.9413 86.8654 64.0532 86.5784 61.1066 86.4662C51.3414 86.0923 42.0413 87.6055 33.6858 90.584C33.4862 90.0086 33.2454 89.4551 32.9623 88.9322C37.9486 82.7946 44.4406 77.7354 52.2272 74.4302C54.858 73.3135 57.5325 72.4544 60.225 71.8143C60.2852 71.9026 60.3474 71.9907 60.4118 72.0784Z" fill="#805A4E" stroke="black"/>
<path d="M67.5639 72.1629L67.5635 72.1636C66.1151 74.1653 64.0706 75.4266 62.0897 75.686C62.074 75.7192 62.0585 75.7524 62.0429 75.7854C61.8036 76.2941 61.5701 76.7903 61.3576 77.3033C59.9733 80.6455 58.9758 84.0495 58.3442 87.4667C61.1638 87.0063 64.0493 86.6941 66.9947 86.5563C76.7563 86.0972 86.0693 87.5291 94.4504 90.4346C94.6451 89.8575 94.881 89.302 95.1595 88.7766C90.1199 82.6827 83.5839 77.6804 75.7688 74.4433C73.1284 73.3496 70.4465 72.5138 67.7485 71.8972C67.689 71.9861 67.6276 72.0747 67.5639 72.1629Z" fill="#805A4E" stroke="black"/>
<path d="M93.5002 50.0001C93.5002 53.5899 90.59 56.5 87.001 56.5C83.4103 56.5 80.5002 53.5899 80.5002 50.0001C80.5002 46.4103 83.4103 43.5 87.001 43.5C90.59 43.5 93.5002 46.4102 93.5002 50.0001Z" fill="#FF5722" stroke="black"/>
<path d="M42.5001 50.0001C42.5001 53.5899 45.4103 56.5 48.9993 56.5C52.59 56.5 55.5001 53.5899 55.5001 50.0001C55.5001 46.4103 52.59 43.5 48.9993 43.5C45.4103 43.5 42.5001 46.4102 42.5001 50.0001Z" fill="#FF5722" stroke="black"/>
<path d="M89.4649 49.8484C89.6772 50.809 88.8731 52.0185 87.4019 52.3969C85.9328 52.7747 84.7427 52.0893 84.5354 51.1516C84.3231 50.191 85.1273 48.9815 86.5985 48.6031C88.0676 48.2253 89.2577 48.9107 89.4649 49.8484Z" fill="#345480" stroke="black"/>
<path d="M46.5354 49.8484C46.3231 50.809 47.1272 52.0185 48.5984 52.3969C50.0675 52.7747 51.2576 52.0893 51.4649 51.1516C51.6772 50.191 50.873 48.9815 49.4018 48.6031C47.9327 48.2253 46.7426 48.9107 46.5354 49.8484Z" fill="#345480" stroke="black"/>
</g>
</g>
<rect x="6" width="140" height="143" rx="70" fill="#52ACC9" fill-opacity="0.5"/>
</g>
<defs>
<filter id="filter0_d_121_44" x="2" y="0" width="148" height="151" filterUnits="userSpaceOnUse" color-interpolation-filters="sRGB">
<feFlood flood-opacity="0" result="BackgroundImageFix"/>
<feColorMatrix in="SourceAlpha" type="matrix" values="0 0 0 0 0 0 0 0 0 0 0 0 0 0 0 0 0 0 127 0" result="hardAlpha"/>
<feOffset dy="4"/>
<feGaussianBlur stdDeviation="2"/>
<feComposite in2="hardAlpha" operator="out"/>
<feColorMatrix type="matrix" values="0 0 0 0 0 0 0 0 0 0 0 0 0 0 0 0 0 0 0.25 0"/>
<feBlend mode="normal" in2="BackgroundImageFix" result="effect1_dropShadow_121_44"/>
<feBlend mode="normal" in="SourceGraphic" in2="effect1_dropShadow_121_44" result="shape"/>
</filter>
<filter id="filter1_d_121_44" x="28.3602" y="11" width="89.64" height="132.564" filterUnits="userSpaceOnUse" color-interpolation-filters="sRGB">
<feFlood flood-opacity="0" result="BackgroundImageFix"/>
<feColorMatrix in="SourceAlpha" type="matrix" values="0 0 0 0 0 0 0 0 0 0 0 0 0 0 0 0 0 0 127 0" result="hardAlpha"/>
<feOffset dy="4"/>
<feGaussianBlur stdDeviation="2"/>
<feComposite in2="hardAlpha" operator="out"/>
<feColorMatrix type="matrix" values="0 0 0 0 0 0 0 0 0 0 0 0 0 0 0 0 0 0 0.25 0"/>
<feBlend mode="normal" in2="BackgroundImageFix" result="effect1_dropShadow_121_44"/>
<feBlend mode="normal" in="SourceGraphic" in2="effect1_dropShadow_121_44" result="shape"/>
</filter>
</defs>
</svg>
